<svg viewBox="0 0 450 938" xmlns="http://www.w3.org/2000/svg"><g fill="#ff7bac"><path d="m24.25224 464.92593q30.49341-97.5937 60.95137-195.19845c16.77236-54.11688 47.74517-77.1393 104.57709-77.1736 27.13076-.01637 54.264-.21862 81.39175.07035 42.01516.44756 78.42509 25.31932 91.17795 65.25878 21.59805 67.64062 41.74325 135.75054 61.97111 203.82007 6.30317 21.21107-1.662 38.45113-18.23875 43.47416-17.24618 5.22587-31.80157-4.08353-38.59072-26.483-17.06944-56.31734-33.57881-112.80521-50.12172-169.28068-3.01683-10.299-5.72848-19.9602-20.96035-13.18581 31.66253 108.71721 63.19611 216.99153 95.43479 327.687h-88.71626c-.4373 8.99726-1.07546 16.10128-1.08274 23.20592-.07428 72.57479-.60039 145.15667.32329 217.71971.2468 19.389-4.502 34.17793-21.45015 44.15959h-20.37037c-19.43576-8.30294-25.11914-23.22488-24.88447-43.8239.85762-75.27476.36764-150.56531.2615-225.84964-.00637-4.52477-1.09148-9.048-1.77709-14.36693-6.22243.31207-11.35032.56925-18.26016.91582v23.26374c-.0003 71.89333-.47283 143.79176.29819 215.67683.22011 20.523-6.06276 35.37835-24.89723 44.18408h-20.37037c-16.91535-9.80019-22.44362-24.37644-22.22912-43.82241.80021-72.54513.34917-145.10451.268-217.65835-.008-7.18321-.69633-14.36556-1.18314-23.75111h-88.04864c31.97263-110.945 63.17694-219.22405 94.38764-327.52523-15.37376-7.39454-16.64006 4.19794-19.22322 12.7838q-24.83585 82.54918-49.25312 165.22417c-4.37909 14.77392-9.7826 28.61835-27.48581 31.50827-16.93083 2.76389-25.80869-8.31581-33.89926-20.46281q0-10.18518.00001-20.37037z"/><path d="m240.17816 29c22.45181 8.87255 42.37666 20.70132 52.04727 44.51564 14.351 35.34013-2.22655 76.49018-37.03442 91.93726a71.021 71.021 0 0 1 -93.709-36.16539c-15.66792-35.42764-.82663-75.63667 34.19015-92.60968 5.31984-2.57857 10.65784-5.11949 15.98748-7.67783z"/></g></svg>