<svg viewBox="0 0 450 938" xmlns="http://www.w3.org/2000/svg"><g fill="#3fa9f5"><path d="m233.57077 542.16846h-17.6087v6.30914q-.00042 160.98459-.01337 321.96912c-.00549 21.40289-12.84085 38.619-32.19733 43.45428a43.01383 43.01383 0 0 1 -53.58624-39.82654c-.12247-2.4945-.07812-4.99817-.07916-7.49756q-.11664-277.72329-.22693-555.44662c-.00092-2.29623-.00006-4.59244-.00006-7.21851h-16.41611v6.5344q-.00009 96.99069.04514 193.98132c.01172 8.95862-1.66324 17.19171-7.62061 24.18152a31.64219 31.64219 0 0 1 -55.90781-19.87048c-.03955-1.66565-.02764-3.33277-.02764-4.99921q-.00106-110.73939.024-221.47873c.05927-48.4166 34.46433-87.542 82.47351-93.96448a94.82821 94.82821 0 0 1 12.47318-.60171c53.16153-.03846 106.32336-.12966 159.48459.00425 47.97607.12085 85.95434 32.24038 94.06793 79.45067a97.97077 97.97077 0 0 1 1.16742 16.42923q.11041 110.73926.03894 221.4787c-.00586 17.46491-9.08325 30.27435-23.84833 33.89533a32.00914 32.00914 0 0 1 -39.805-30.81983c-.02991-1.666-.00843-3.33295-.00843-4.99945q-.00027-96.49077-.00018-192.98151v-6.24395h-16.50092v7.2864q-.00028 278.22332.04547 556.44657c.00366 10.76208-1.70624 20.84125-8.20551 29.75384a43.20122 43.20122 0 0 1 -46.532 16.27234 42.66453 42.66453 0 0 1 -31.04062-38.68414c-.17377-2.8244-.18741-5.66193-.18765-8.49335q-.01336-158.48409-.00757-316.96826c-.00004-2.30255-.00001-4.6051-.00001-7.35278z"/><path d="m224.99332 22.68649a73.09382 73.09382 0 1 1 -73.25727 72.78137 73.06076 73.06076 0 0 1 73.25727-72.78137z"/></g></svg>